<?xml version="1.0" encoding="utf-8"?>
<!-- Generator: Adobe Illustrator 27.4.0, SVG Export Plug-In . SVG Version: 6.00 Build 0)  -->
<svg version="1.1" xmlns="http://www.w3.org/2000/svg" xmlns:xlink="http://www.w3.org/1999/xlink" x="0px" y="0px"
	 viewBox="0 0 1920 1080" style="enable-background:new 0 0 1920 1080;" xml:space="preserve">
<style type="text/css">
	.st0{fill:#002DFF;}
</style>
<g id="Layer_3">
	<rect width="1920" height="1080"/>
</g>
<g id="Layer_2_00000059279413793245881320000013527973774970628019_">
	<g>
		<path class="st0" d="M813.1,461.1H648.6c-7.8,0-14.8,4.7-16.6,14.1l-5,19.8c-2.5,10,6.5,13,14.3,13h26.9l-9.7,38.5h-88.1l0.5-2.2
			c2.1-8,0.8-16-11.7-15.6h-82c-7.8,0-14.8,4.7-16.6,14.1l-0.8,3.6h-83.3L408,422.6h263.3c7.8,0,15.2-3.3,18.5-13l7.4-24.9
			c2.1-8,0.8-16-11.7-15.6H406h-9.6h-88.2c-7.8,0-14.8,4.7-16.6,14.1l-78.5,312.9c-2.5,10,6.3,14.1,14.1,14.1h96.2
			c7.8,0,12.9-4.8,15-14.1l26.1-102.7h84.3L425,696.2c-2.5,10,6.3,14.1,14.1,14.1h80.5c7.8,0,12.9-4.8,15-14.1l24.6-102.7h87.6
			l-25.5,101.6c-2.7,11.1,6.1,15.2,13.9,15.2h80.5c7.8,0,12.9-4.8,15.2-15.2L778.7,508h25.6c7.8,0,13.4-3.7,15.5-13l5-18.3
			C826.9,468.6,825.6,460.7,813.1,461.1z"/>
		<path class="st0" d="M1299.6,461.1h-162.4c-1.2,0-4.6,0-7.6,0l-23.3,0c-7.8,0-14.8,5.1-16.6,14.5l-17.8,70.9H986l31.5-123.9h179.6
			c7.8,0,16.3-3.3,19.6-13l7.4-24.9c2.1-8,0.8-16-11.7-15.6h-197h-82H826c-7.8,0-14.8,4.7-16.6,14.1l-7.5,26.3
			c-2.5,10,6.5,13,14.3,13h90.9l-68.7,273.6c-2.5,10,6.3,14.1,14.1,14.1H933c7.8,0,12.9-4.8,15-14.1l26.1-102.7h86.1l-25.7,102.7
			c-2.5,10,6.2,14.6,14,14.6l24.4,0c7,0.1,3.6,0,5.3,0h163c7.8,0,13.4-3.7,15.5-13l5-18.3c2.1-8,0.8-16-11.7-15.6h-97.4l17.9-70.4
			h70.7c8.4-0.1,13.4-3.7,15.5-13l5-18.3c2.1-8,1-15.6-11.7-15.6h-67.5l9.8-38.5h98.6c7.8,0,13.4-3.7,15.5-13l5-18.3
			C1313.5,468.6,1312.2,460.7,1299.6,461.1z"/>
		<path class="st0" d="M577,460.7l-81,0.4c-7.8,0-14.8,4.7-16.6,14.1l-5,19.8c-2.5,10,6.5,13,14.3,13l79.5-0.4
			c7.8,0,13.4-3.7,15.5-13l5-18.3C590.8,468.2,589.5,460.3,577,460.7z"/>
		<path class="st0" d="M1680.4,369.2h-76.2c-13.5,0-18.6,5.3-26.2,14.1l-107.8,124.6l31.3-123.1c2.1-8,0.8-16-11.7-15.6h-82
			c-3.9,0-7.7,1.2-10.6,3.6c-4.9,4-5.8,9.3-6,10.5c-13,51.7-24.7,98.4-37.7,150.1l-0.2,0.9c-0.1,0.4-0.2,0.7-0.3,1.1
			c-0.3,1.1-1,3.9-2.1,8.1l-12.1,5.3c0,0-30,12.7-20.5,40.7c0,0,3.7,12,16.5,17.8c-0.3,2.2,0,0.8-0.7,3.7
			c-7.1,28.4-14.3,56.9-21.4,85.3c-2.5,10,6.3,14.1,14.1,14.1h80.5c7.8,0,12.9-4.8,15-14.1l26.4-103.9l50.7,103.9
			c4,8.4,7.5,14.1,19.2,14.1h82.2c7.8,0,11.9-5.5,8.3-14.1L1540,555.2l148.3-170.4C1694.1,377.3,1692.9,368.8,1680.4,369.2z"/>
	</g>
</g>
</svg>
